<svg xmlns="http://www.w3.org/2000/svg" viewBox="0 0 780 430" width="780" height="430" font-family="Poppins, Arial, sans-serif">
<rect width="780" height="430" fill="#1d1d2e" rx="14"/>
<text x="390" y="26" text-anchor="middle" fill="#e4e3ea" font-size="14" font-weight="600">Kiné@Dom Pro — Site professionnel (RH / recrutement)</text>
<text x="390" y="44" text-anchor="middle" fill="#a09fb0" font-size="11">Mai 2025 · 3 semaines</text>
<rect x="200" y="48" width="570" height="22" fill="#252535"/>
<text x="215" y="64" text-anchor="middle" font-size="10" fill="#a09fb0">5</text>
<text x="245" y="64" text-anchor="middle" font-size="10" fill="#a09fb0">6</text>
<text x="275" y="64" text-anchor="middle" font-size="10" fill="#a09fb0">7</text>
<text x="305" y="64" text-anchor="middle" font-size="10" fill="#a09fb0">8</text>
<text x="335" y="64" text-anchor="middle" font-size="10" fill="#a09fb0">9</text>
<text x="365" y="64" text-anchor="middle" font-size="10" fill="#a09fb0">10</text>
<text x="395" y="64" text-anchor="middle" font-size="10" fill="#a09fb0">11</text>
<text x="425" y="64" text-anchor="middle" font-size="10" fill="#a09fb0">12</text>
<text x="455" y="64" text-anchor="middle" font-size="10" fill="#a09fb0">13</text>
<text x="485" y="64" text-anchor="middle" font-size="10" fill="#a09fb0">14</text>
<text x="515" y="64" text-anchor="middle" font-size="10" fill="#a09fb0">15</text>
<text x="545" y="64" text-anchor="middle" font-size="10" fill="#a09fb0">16</text>
<text x="575" y="64" text-anchor="middle" font-size="10" fill="#a09fb0">17</text>
<text x="605" y="64" text-anchor="middle" font-size="10" fill="#a09fb0">18</text>
<text x="635" y="64" text-anchor="middle" font-size="10" fill="#a09fb0">19</text>
<text x="665" y="64" text-anchor="middle" font-size="10" fill="#a09fb0">20</text>
<text x="695" y="64" text-anchor="middle" font-size="10" fill="#a09fb0">21</text>
<text x="725" y="64" text-anchor="middle" font-size="10" fill="#a09fb0">22</text>
<text x="755" y="64" text-anchor="middle" font-size="10" fill="#a09fb0">23</text>
<line x1="200" y1="70" x2="770" y2="70" stroke="#2e2e42" stroke-width="1"/>
<line x1="200" y1="106" x2="770" y2="106" stroke="#2e2e42" stroke-width="1"/>
<line x1="200" y1="142" x2="770" y2="142" stroke="#2e2e42" stroke-width="1"/>
<line x1="200" y1="178" x2="770" y2="178" stroke="#2e2e42" stroke-width="1"/>
<line x1="200" y1="214" x2="770" y2="214" stroke="#2e2e42" stroke-width="1"/>
<line x1="200" y1="250" x2="770" y2="250" stroke="#2e2e42" stroke-width="1"/>
<line x1="200" y1="286" x2="770" y2="286" stroke="#2e2e42" stroke-width="1"/>
<line x1="200" y1="322" x2="770" y2="322" stroke="#2e2e42" stroke-width="1"/>
<line x1="200" y1="358" x2="770" y2="358" stroke="#2e2e42" stroke-width="1"/>
<line x1="200" y1="70" x2="200" y2="358" stroke="#2e2e42" stroke-width="1"/>
<line x1="230" y1="70" x2="230" y2="358" stroke="#2e2e42" stroke-width="1"/>
<line x1="260" y1="70" x2="260" y2="358" stroke="#2e2e42" stroke-width="1"/>
<line x1="290" y1="70" x2="290" y2="358" stroke="#2e2e42" stroke-width="1"/>
<line x1="320" y1="70" x2="320" y2="358" stroke="#2e2e42" stroke-width="1"/>
<line x1="350" y1="70" x2="350" y2="358" stroke="#2e2e42" stroke-width="1"/>
<line x1="380" y1="70" x2="380" y2="358" stroke="#2e2e42" stroke-width="1"/>
<line x1="410" y1="70" x2="410" y2="358" stroke="#2e2e42" stroke-width="1"/>
<line x1="440" y1="70" x2="440" y2="358" stroke="#2e2e42" stroke-width="1"/>
<line x1="470" y1="70" x2="470" y2="358" stroke="#2e2e42" stroke-width="1"/>
<line x1="500" y1="70" x2="500" y2="358" stroke="#2e2e42" stroke-width="1"/>
<line x1="530" y1="70" x2="530" y2="358" stroke="#2e2e42" stroke-width="1"/>
<line x1="560" y1="70" x2="560" y2="358" stroke="#2e2e42" stroke-width="1"/>
<line x1="590" y1="70" x2="590" y2="358" stroke="#2e2e42" stroke-width="1"/>
<line x1="620" y1="70" x2="620" y2="358" stroke="#2e2e42" stroke-width="1"/>
<line x1="650" y1="70" x2="650" y2="358" stroke="#2e2e42" stroke-width="1"/>
<line x1="680" y1="70" x2="680" y2="358" stroke="#2e2e42" stroke-width="1"/>
<line x1="710" y1="70" x2="710" y2="358" stroke="#2e2e42" stroke-width="1"/>
<line x1="740" y1="70" x2="740" y2="358" stroke="#2e2e42" stroke-width="1"/>
<line x1="770" y1="70" x2="770" y2="358" stroke="#2e2e42" stroke-width="1"/>
<text x="192" y="92" text-anchor="end" font-size="11" fill="#e4e3ea">Analyse du besoin</text>
<rect x="203" y="78" width="54" height="20" rx="4" fill="#f0a500" opacity="0.85"/>
<rect x="0" y="106" width="200" height="36" fill="#ffffff08"/>
<text x="192" y="128" text-anchor="end" font-size="11" fill="#e4e3ea">Maquettage / wireframes</text>
<rect x="233" y="114" width="114" height="20" rx="4" fill="#f0a500" opacity="0.85"/>
<text x="192" y="164" text-anchor="end" font-size="11" fill="#e4e3ea">Intégration HTML/CSS</text>
<rect x="323" y="150" width="174" height="20" rx="4" fill="#4a9eff" opacity="0.85"/>
<rect x="0" y="178" width="200" height="36" fill="#ffffff08"/>
<text x="192" y="200" text-anchor="end" font-size="11" fill="#e4e3ea">Intégration contenu RH</text>
<rect x="473" y="186" width="114" height="20" rx="4" fill="#4a9eff" opacity="0.85"/>
<text x="192" y="236" text-anchor="end" font-size="11" fill="#e4e3ea">Configuration hébergement</text>
<rect x="533" y="222" width="84" height="20" rx="4" fill="#4a9eff" opacity="0.85"/>
<rect x="0" y="250" width="200" height="36" fill="#ffffff08"/>
<text x="192" y="272" text-anchor="end" font-size="11" fill="#e4e3ea">Tests fonctionnels</text>
<rect x="563" y="258" width="114" height="20" rx="4" fill="#e05c5c" opacity="0.85"/>
<text x="192" y="308" text-anchor="end" font-size="11" fill="#e4e3ea">Corrections & ajustements</text>
<rect x="623" y="294" width="84" height="20" rx="4" fill="#e05c5c" opacity="0.85"/>
<rect x="0" y="322" width="200" height="36" fill="#ffffff08"/>
<text x="192" y="344" text-anchor="end" font-size="11" fill="#e4e3ea">Mise en ligne</text>
<rect x="683" y="330" width="84" height="20" rx="4" fill="#7c5cbf" opacity="0.85"/>
<rect x="16" y="376" width="12" height="12" rx="2" fill="#f0a500" opacity="0.85"/>
<text x="32" y="386" font-size="10" fill="#a09fb0">Analyse / Conception</text>
<rect x="186" y="376" width="12" height="12" rx="2" fill="#4a9eff" opacity="0.85"/>
<text x="202" y="386" font-size="10" fill="#a09fb0">Développement</text>
<rect x="307" y="376" width="12" height="12" rx="2" fill="#e05c5c" opacity="0.85"/>
<text x="323" y="386" font-size="10" fill="#a09fb0">Tests & Corrections</text>
<rect x="470" y="376" width="12" height="12" rx="2" fill="#7c5cbf" opacity="0.85"/>
<text x="486" y="386" font-size="10" fill="#a09fb0">Déploiement</text>
</svg>