<svg xmlns="http://www.w3.org/2000/svg" width="256" height="256" viewBox="0 0 256 256" shape-rendering="crispEdges">
  <!-- Palette -->
  <!-- Light: #FFE27A | Mid: #F6C84A | Dark: #D49C1E -->

  <!-- Bar -->
  <rect x="64" y="120" width="128" height="16" fill="#F6C84A"/>
  <rect x="64" y="124" width="128" height="8" fill="#FFE27A" opacity="0.35"/>

  <!-- Left plates -->
  <rect x="40" y="104" width="8" height="48" fill="#D49C1E"/>
  <rect x="48" y="96" width="8" height="64" fill="#F6C84A"/>
  <rect x="56" y="88" width="8" height="80" fill="#F6C84A"/>
  <rect x="64" y="80" width="16" height="96" fill="#F6C84A"/>
  <rect x="80" y="88" width="8" height="80" fill="#F6C84A"/>
  <rect x="88" y="96" width="8" height="64" fill="#D49C1E"/>

  <!-- Left highlight -->
  <rect x="64" y="88" width="8" height="80" fill="#FFE27A" opacity="0.30"/>

  <!-- Right plates -->
  <rect x="208" y="104" width="8" height="48" fill="#D49C1E"/>
  <rect x="200" y="96" width="8" height="64" fill="#F6C84A"/>
  <rect x="192" y="88" width="8" height="80" fill="#F6C84A"/>
  <rect x="176" y="80" width="16" height="96" fill="#F6C84A"/>
  <rect x="168" y="88" width="8" height="80" fill="#F6C84A"/>
  <rect x="160" y="96" width="8" height="64" fill="#D49C1E"/>

  <!-- Right highlight -->
  <rect x="184" y="88" width="8" height="80" fill="#FFE27A" opacity="0.30"/>

  <!-- Collars -->
  <rect x="96" y="116" width="8" height="24" fill="#D49C1E"/>
  <rect x="152" y="116" width="8" height="24" fill="#D49C1E"/>
</svg>
